#!OML:ASF H:\charlestonDancing\Project 1\Capture day 1\Session 1\femaleDancer.ASF
:FULLY-SPECIFIED
:DEGREES
1
root -1.81058 17.119 4.85713 172.894 -78.7316 -171.034
lowerback 15.893 -4.07892 2.02082
upperback 5.22675 -5.48764 -2.61929
thorax -3.76006 -2.83216 -2.84226
lowerneck 0.160344 8.3642 8.91937
upperneck 5.44543 11.366 -7.65984
head 2.54128 5.65875 -3.39234
rclavicle -7.196e-014 -3.02153e-014
rhumerus -45.4732 -14.9553 -57.4507
rradius 92.2939
rwrist -38.7293
rhand -9.95722 -31.2569
rfingers 7.12502
rthumb 16.0248 -60.6141
lclavicle -7.196e-014 -3.02153e-014
lhumerus -36.0941 -1.74834 76.067
lradius 76.0529
lwrist 10.3899
lhand -27.6004 5.89446
lfingers 7.12502
lthumb -0.99993 35.8719
rfemur -25.144 8.80674 26.3527
rtibia 47.9317
rfoot -21.6877 -3.91698
rtoes -9.55301
lfemur -27.6153 9.62743 -20.5987
ltibia 54.2924
lfoot -13.091 -13.4861
ltoes -14.26
2
root -1.73436 17.1172 4.82999 169.748 -79.5053 -167.491
lowerback 16.3525 -4.46768 2.41219
upperback 5.1766 -5.91459 -2.43415
thorax -4.10374 -3.04247 -2.74421
lowerneck 0.337858 8.50738 8.90623
upperneck 5.04635 11.5736 -7.94474
head 2.42668 5.76259 -3.48097
rclavicle 4.05521e-014 5.56597e-014
rhumerus -45.1944 -15.132 -57.6758
rradius 92.3196
rwrist -38.6517
rhand -9.70434 -31.2394
rfingers 7.12502
rthumb 16.2683 -60.5769
lclavicle 4.05521e-014 5.56597e-014
lhumerus -35.1105 -2.44388 75.7127
lradius 76.7946
lwrist 9.98292
lhand -27.664 5.37361
lfingers 7.12502
lthumb -1.06135 35.3507
rfemur -25.6527 7.91724 26.9882
rtibia 47.5815
rfoot -21.4897 -3.66939
rtoes -9.14673
lfemur -29.3212 9.5157 -19.8566
ltibia 55.9604
lfoot -11.9297 -13.896
ltoes -18.1329
3
root -1.65681 17.132 4.80699 166.882 -80.4675 -164.037
lowerback 16.5998 -4.87918 2.603
upperback 5.12718 -6.39706 -2.19439
thorax -4.31304 -3.27765 -2.47472
lowerneck 0.453296 8.64207 8.82598
upperneck 4.58184 11.765 -8.27568
head 2.30083 5.85681 -3.5729
rclavicle -3.57812e-015 -7.95139e-015
rhumerus -44.9428 -15.1328 -57.7876
rradius 92.4447
rwrist -38.7175
rhand -9.53334 -31.303
rfingers 7.12502
rthumb 16.433 -60.627
lclavicle -3.57812e-015 -7.95139e-015
lhumerus -33.6549 -3.03429 75.3264
lradius 77.5022
lwrist 9.59867
lhand -27.5136 5.03847
lfingers 7.12502
lthumb -0.916166 35.0162
rfemur -26.2597 6.72221 27.396
rtibia 46.9823
rfoot -21.0667 -3.27191
rtoes -8.76518
lfemur -31.0377 9.02274 -19.3151
ltibia 57.1598
lfoot -10.8564 -14.7131
ltoes -21.076
4
root -1.58769 17.166 4.78781 164.142 -81.1601 -160.721
lowerback 16.7463 -5.12958 2.64862
upperback 5.11264 -6.69457 -1.93978
thorax -4.40018 -3.4215 -2.15587
lowerneck 0.505725 8.71757 8.79658
upperneck 4.24584 11.8712 -8.54103
head 2.21579 5.90923 -3.65168
rclavicle 5.00937e-014 -9.54166e-015
rhumerus -44.7617 -15.1095 -57.8102
rradius 92.6207
rwrist -38.9015
rhand -9.50115 -31.5826
rfingers 7.12502
rthumb 16.464 -60.904
lclavicle 5.00937e-014 -9.54166e-015
lhumerus -31.9446 -3.67111 74.9015
lradius 78.3333
lwrist 9.4999
lhand -27.3774 4.61378
lfingers 7.12502
lthumb -0.784618 34.5921
rfemur -26.7517 5.64575 27.7381
rtibia 46.2643
rfoot -20.5864 -2.79605
rtoes -8.37783
lfemur -32.4735 8.63936 -18.8461
ltibia 58.2058
lfoot -10.2352 -15.6777
ltoes -23.1374
5
root -1.52515 17.2162 4.77041 162.069 -81.6099 -158.187
lowerback 16.8663 -5.27469 2.42913
upperback 4.79415 -6.8845 -1.72505
thorax -4.76407 -3.5079 -1.74015
lowerneck 2.36346 8.66321 9.14057
upperneck 3.35747 11.899 -9.00536
head 1.70255 5.96769 -3.95121
rclavicle 6.63941e-014 -1.59028e-015
rhumerus -45.2005 -14.488 -57.7742
rradius 92.8254
rwrist -39.1067
rhand -9.47453 -31.7376
rfingers 7.12502
rthumb 16.4896 -61.0569
lclavicle 6.63941e-014 -1.59028e-015
lhumerus -30.9189 -4.44988 74.4116
lradius 79.4337
lwrist 9.6927
lhand -27.4142 4.47919
lfingers 7.12502
lthumb -0.820154 34.4574
rfemur -26.9956 4.75751 27.9857
rtibia 45.3288
rfoot -20.0335 -2.24321
rtoes -7.96776
lfemur -33.3893 8.43314 -18.5186
ltibia 59.0415
lfoot -9.94254 -16.5587
ltoes -23.8177
6
root -1.46402 17.2752 4.75455 160.344 -82.0735 -156.024
lowerback 16.9774 -5.24284 2.307
upperback 5.18991 -6.8689 -1.50523
thorax -4.35893 -3.5044 -1.45931
lowerneck 1.13726 8.72882 8.86998
upperneck 3.2899 11.9096 -9.00699
head 1.86571 5.9465 -3.85153
rclavicle -8.46823e-014 -1.74931e-014
rhumerus -44.4428 -14.9003 -57.8891
rradius 92.8596
rwrist -39.257
rhand -9.62923 -31.6711
rfingers 7.12502
rthumb 16.3407 -61.0027
lclavicle -8.46823e-014 -1.74931e-014
lhumerus -28.3807 -5.2723 73.9915
lradius 80.7746
lwrist 9.78676
lhand -27.6074 4.63202
lfingers 7.12502
lthumb -1.00673 34.6094
rfemur -27.1114 3.87932 28.1455
rtibia 44.1881
rfoot -19.4079 -1.69526
rtoes -7.82104
lfemur -33.9489 8.29399 -18.3798
ltibia 59.8421
lfoot -10.4649 -16.8448
ltoes -25.2805
7
root -1.40232 17.3394 4.73841 157.855 -82.4104 -153.061
lowerback 17.147 -5.35278 2.06187
upperback 4.7289 -7.00744 -1.26351
thorax -4.8883 -3.56133 -0.999024
lowerneck 3.18606 8.63414 9.21468
upperneck 2.64241 11.8975 -9.36631
head 1.38426 5.98966 -4.12757
rclavicle -1.23246e-014 1.59028e-014
rhumerus -44.8811 -14.0746 -57.8094
rradius 92.6934
rwrist -39.5166
rhand -9.79435 -31.5028
rfingers 7.12502
rthumb 16.1817 -60.8473
lclavicle -1.23246e-014 1.59028e-014
lhumerus -27.4164 -6.11482 73.3905
lradius 81.9554
lwrist 9.67815
lhand -27.8628 4.56525
lfingers 7.12502
lthumb -1.25339 34.5413
rfemur -27.1896 3.22399 28.4329
rtibia 42.9018
rfoot -18.6052 -1.097
rtoes -7.97666
lfemur -34.227 8.42436 -18.2065
ltibia 60.7483
lfoot -12.1132 -16.0343
ltoes -28.8941
8
root -1.34434 17.4101 4.72421 155.41 -82.6762 -150.217
lowerback 17.2886 -5.3945 1.92595
upperback 5.05101 -7.08995 -1.09527
thorax -4.58515 -3.6069 -0.736908
lowerneck 1.86523 8.76852 9.28055
upperneck 3.09267 12.0147 -9.3373
head 1.74383 6.0178 -4.04651
rclavicle 1.14898e-013 1.27222e-014
rhumerus -43.6413 -14.7599 -58.2169
rradius 91.833
rwrist -39.4115
rhand -9.54506 -31.1542
rfingers 7.12502
rthumb 16.4217 -60.4791
lclavicle 1.14898e-013 1.27222e-014
lhumerus -24.1384 -6.7732 72.374
lradius 82.3487
lwrist 9.56699
lhand -28.1015 4.45474
lfingers 7.12502
lthumb -1.48391 34.4293
rfemur -27.1223 2.71888 28.6923
rtibia 41.5361
rfoot -17.6248 -0.500716
rtoes -8.05519
lfemur -34.0773 8.69596 -18.0887
ltibia 61.7973
lfoot -13.9791 -14.364
ltoes -31.971
9
root -1.29323 17.4849 4.71853 153.934 -83.0936 -148.367
lowerback 17.3066 -5.49081 1.71223
upperback 5.17732 -7.25213 -1.00985
thorax -4.42885 -3.68775 -0.50185
lowerneck 1.50103 8.80581 9.38071
upperneck 3.26868 12.0478 -9.28763
head 1.86094 6.0269 -4.02277
rclavicle -2.50469e-014 -1.59028e-014
rhumerus -42.7515 -15.3118 -58.5393
rradius 90.8842
rwrist -39.1364
rhand -9.10496 -30.785
rfingers 7.12502
rthumb 16.8454 -60.0743
lclavicle -2.50469e-014 -1.59028e-014
lhumerus -21.1565 -7.41885 71.2665
lradius 82.5125
lwrist 9.227
lhand -28.281 4.29783
lfingers 7.12502
lthumb -1.65729 34.2711
rfemur -26.9884 2.01427 28.7081
rtibia 40.1614
rfoot -16.7377 -0.340327
rtoes -8.16885
lfemur -33.5444 8.86804 -18.2562
ltibia 62.9362
lfoot -14.9448 -12.3772
ltoes -32.3598
